<?xml version="1.0" encoding="utf-8"?>
<!-- Generator: Adobe Illustrator 16.0.0, SVG Export Plug-In . SVG Version: 6.00 Build 0)  -->
<!DOCTYPE svg PUBLIC "-//W3C//DTD SVG 1.1//EN" "http://www.w3.org/Graphics/SVG/1.1/DTD/svg11.dtd">
<svg version="1.1" id="Layer_1" xmlns="http://www.w3.org/2000/svg" xmlns:xlink="http://www.w3.org/1999/xlink" x="0px" y="0px"
	 width="227px" height="237.5px" viewBox="0 0 227 237.5" enable-background="new 0 0 227 237.5" xml:space="preserve">
<g>
	<line fill="none" stroke="#E5AF0D" stroke-width="7" x1="87.333" y1="199.167" x2="138" y2="199.167"/>
</g>
<g>
	<line fill="none" stroke="#E5AF0D" stroke-width="7" x1="90.667" y1="213.834" x2="135.631" y2="213.834"/>
</g>
<g>
	<line fill="none" stroke="#E5AF0D" stroke-width="5" x1="95" y1="227" x2="130.333" y2="227"/>
</g>
<g>
	<path fill="#E5AF0D" d="M95,229.5c0,0,0.138-0.133,0.397-0.381c0.259-0.226,0.638-0.602,1.121-0.979
		c0.483-0.397,1.07-0.883,1.743-1.37c0.336-0.237,0.694-0.49,1.072-0.756c0.188-0.15,0.382-0.125,0.581-0.055
		c0.198,0.063,0.4,0.033,0.607,0.04c3.313,0,7.729,0,12.146,0c4.417,0,8.833,0,12.146,0c0.207-0.008,0.41,0.021,0.608-0.031
		c0.198-0.082,0.392-0.074,0.58,0.092c0.377,0.273,0.735,0.532,1.072,0.775c0.673,0.468,1.259,0.951,1.743,1.34
		c0.483,0.374,0.862,0.737,1.121,0.956c0.259,0.24,0.397,0.368,0.397,0.368s-0.138,0.128-0.397,0.368
		c-0.259,0.219-0.638,0.582-1.121,0.956c-0.483,0.389-1.07,0.872-1.743,1.34c-0.336,0.243-0.694,0.502-1.072,0.775
		c-0.188,0.166-0.382,0.174-0.58,0.092c-0.198-0.053-0.401-0.023-0.608-0.031c-3.313,0-7.729,0-12.146,0c-4.417,0-8.833,0-12.146,0
		c-0.207,0.007-0.41-0.022-0.607,0.04c-0.198,0.07-0.392,0.096-0.581-0.055c-0.377-0.266-0.735-0.519-1.072-0.756
		c-0.673-0.487-1.259-0.973-1.743-1.37c-0.483-0.377-0.862-0.753-1.121-0.979C95.138,229.633,95,229.5,95,229.5z"/>
</g>
<g>
	<path fill="none" stroke="#E5AF0D" stroke-width="7" d="M143.658,180.211c-0.361,2.726-2.908,4.956-5.658,4.956H87.333
		c-2.75,0-5.279-2.232-5.62-4.961c0,0-2.792-22.338-3.654-25.584c-1.56-5.872-19.394-24.8-19.394-41.455c0-29.823,24.177-54,54-54
		c29.824,0,54,24.177,54,54c0,16.543-17.666,35.458-19.154,41.255C146.629,157.859,143.658,180.211,143.658,180.211z"/>
</g>
<g>
	<path fill="#E5AF0D" d="M27.5,185.5c0,0,0.005-0.207,0.039-0.57c0.042-0.355,0.071-0.909,0.179-1.542
		c0.094-0.646,0.207-1.434,0.383-2.287c0.093-0.422,0.192-0.871,0.296-1.345c0.041-0.249,0.207-0.377,0.408-0.475
		c0.196-0.104,0.332-0.277,0.496-0.428c2.547-2.484,5.942-5.797,9.338-9.109c3.396-3.313,6.792-6.625,9.338-9.109
		c0.153-0.16,0.33-0.291,0.445-0.478c0.095-0.208,0.25-0.348,0.511-0.37c0.48-0.087,0.937-0.17,1.365-0.248
		c0.844-0.171,1.632-0.264,2.275-0.348c0.632-0.096,1.178-0.119,1.53-0.157c0.367-0.022,0.562-0.034,0.562-0.034
		s-0.017,0.195-0.048,0.561c-0.046,0.351-0.084,0.896-0.194,1.525c-0.1,0.641-0.213,1.428-0.404,2.267
		c-0.089,0.427-0.183,0.88-0.283,1.358c-0.029,0.261-0.172,0.412-0.382,0.502c-0.189,0.11-0.324,0.283-0.489,0.434
		c-2.547,2.484-5.942,5.797-9.338,9.109c-3.396,3.313-6.792,6.625-9.338,9.109c-0.154,0.16-0.331,0.291-0.439,0.484
		c-0.104,0.199-0.235,0.361-0.484,0.396c-0.476,0.092-0.928,0.18-1.352,0.263c-0.858,0.155-1.647,0.248-2.296,0.326
		c-0.635,0.092-1.189,0.107-1.545,0.14C27.707,185.5,27.5,185.5,27.5,185.5z"/>
</g>
<g>
	<path fill="#E5AF0D" d="M2.333,132.12c0,0,0.106-0.178,0.314-0.478c0.211-0.289,0.509-0.757,0.913-1.255
		c0.399-0.517,0.884-1.147,1.458-1.804c0.288-0.322,0.595-0.665,0.918-1.026c0.158-0.197,0.365-0.227,0.588-0.213
		c0.222,0.006,0.425-0.079,0.642-0.129c3.439-0.913,8.024-2.13,12.609-3.348s9.17-2.435,12.608-3.348
		c0.213-0.065,0.431-0.092,0.623-0.198c0.185-0.134,0.388-0.18,0.626-0.071c0.462,0.16,0.9,0.312,1.312,0.454
		c0.819,0.266,1.552,0.572,2.153,0.815c0.598,0.228,1.085,0.475,1.41,0.615c0.33,0.161,0.506,0.246,0.506,0.246
		s-0.11,0.162-0.317,0.465c-0.213,0.283-0.513,0.739-0.919,1.233c-0.402,0.509-0.886,1.139-1.465,1.775
		c-0.287,0.328-0.592,0.677-0.914,1.045c-0.153,0.213-0.352,0.274-0.579,0.249c-0.219,0.003-0.422,0.088-0.639,0.138
		c-3.439,0.913-8.024,2.13-12.609,3.348s-9.17,2.435-12.608,3.348c-0.213,0.064-0.431,0.091-0.621,0.207
		c-0.188,0.122-0.382,0.2-0.617,0.107c-0.46-0.153-0.896-0.299-1.307-0.436c-0.824-0.286-1.557-0.592-2.16-0.843
		c-0.599-0.232-1.089-0.491-1.416-0.637C2.514,132.221,2.333,132.12,2.333,132.12z"/>
</g>
<g>
	<path fill="#E5AF0D" d="M6.374,66.645c0,0,0.189-0.083,0.533-0.207c0.34-0.113,0.854-0.322,1.472-0.493
		c0.625-0.189,1.386-0.421,2.233-0.624c0.422-0.095,0.871-0.196,1.344-0.303c0.242-0.069,0.428,0.027,0.603,0.168
		c0.177,0.133,0.391,0.183,0.597,0.267c3.331,1.251,7.771,2.919,12.212,4.588c4.44,1.668,8.881,3.336,12.212,4.587
		c0.211,0.071,0.404,0.175,0.623,0.201c0.228-0.002,0.42,0.078,0.551,0.305c0.284,0.398,0.553,0.776,0.805,1.131
		c0.512,0.691,0.932,1.366,1.281,1.913c0.354,0.532,0.608,1.016,0.792,1.318c0.176,0.322,0.27,0.494,0.27,0.494
		s-0.184,0.067-0.528,0.194c-0.337,0.107-0.847,0.305-1.464,0.472c-0.623,0.182-1.382,0.413-2.223,0.596
		c-0.424,0.101-0.875,0.208-1.35,0.321c-0.249,0.084-0.446,0.019-0.616-0.133c-0.181-0.125-0.395-0.173-0.6-0.259
		c-3.331-1.251-7.771-2.919-12.212-4.588c-4.44-1.668-8.881-3.336-12.212-4.587c-0.211-0.072-0.404-0.176-0.625-0.192
		c-0.224-0.009-0.427-0.059-0.564-0.271c-0.286-0.392-0.557-0.763-0.812-1.112c-0.505-0.711-0.925-1.386-1.271-1.94
		c-0.353-0.536-0.603-1.031-0.783-1.34C6.461,66.832,6.374,66.645,6.374,66.645z"/>
</g>
<g>
	<path fill="#E5AF0D" d="M48.663,17.295c0,0,0.205,0.031,0.561,0.109c0.348,0.085,0.894,0.182,1.508,0.367
		c0.63,0.173,1.397,0.382,2.223,0.663c0.407,0.144,0.841,0.298,1.298,0.46c0.242,0.071,0.348,0.251,0.421,0.463
		c0.079,0.207,0.233,0.363,0.362,0.544c2.151,2.833,5.02,6.612,7.888,10.391c2.869,3.778,5.737,7.557,7.888,10.391
		c0.141,0.172,0.249,0.364,0.42,0.501c0.194,0.12,0.313,0.29,0.304,0.552c0.027,0.488,0.054,0.951,0.078,1.386
		c0.065,0.858,0.061,1.653,0.064,2.301c0.017,0.639-0.027,1.184-0.033,1.537c-0.023,0.367-0.035,0.562-0.035,0.562
		s-0.191-0.041-0.551-0.117c-0.342-0.089-0.878-0.194-1.49-0.381c-0.624-0.178-1.39-0.387-2.199-0.68
		c-0.413-0.141-0.851-0.291-1.313-0.448c-0.255-0.061-0.387-0.222-0.45-0.441c-0.087-0.202-0.242-0.357-0.37-0.539
		c-2.151-2.833-5.02-6.612-7.888-10.391c-2.869-3.778-5.737-7.557-7.888-10.391c-0.141-0.173-0.249-0.364-0.427-0.496
		c-0.185-0.127-0.33-0.278-0.333-0.53c-0.033-0.484-0.064-0.943-0.094-1.374c-0.048-0.871-0.043-1.666-0.041-2.319
		c-0.013-0.642,0.04-1.194,0.051-1.551C48.638,17.5,48.663,17.295,48.663,17.295z"/>
</g>
<g>
	<path fill="#E5AF0D" d="M199.443,185.5c0,0-0.207,0-0.571-0.025c-0.356-0.032-0.91-0.048-1.546-0.14
		c-0.648-0.078-1.438-0.171-2.296-0.326c-0.425-0.083-0.876-0.171-1.352-0.263c-0.25-0.035-0.382-0.197-0.485-0.396
		c-0.108-0.193-0.284-0.324-0.438-0.484c-2.547-2.484-5.942-5.797-9.339-9.109c-3.396-3.313-6.791-6.625-9.338-9.109
		c-0.165-0.15-0.3-0.323-0.489-0.434c-0.21-0.09-0.354-0.241-0.382-0.502c-0.1-0.479-0.194-0.932-0.283-1.358
		c-0.19-0.839-0.304-1.626-0.403-2.267c-0.111-0.629-0.148-1.175-0.195-1.525c-0.031-0.365-0.048-0.561-0.048-0.561
		s0.195,0.012,0.562,0.034c0.353,0.038,0.898,0.062,1.53,0.157c0.643,0.084,1.432,0.177,2.275,0.348
		c0.429,0.078,0.885,0.161,1.365,0.248c0.262,0.022,0.416,0.162,0.511,0.37c0.115,0.187,0.292,0.317,0.445,0.478
		c2.547,2.484,5.942,5.797,9.339,9.109c3.396,3.313,6.791,6.625,9.338,9.109c0.164,0.15,0.3,0.324,0.496,0.428
		c0.201,0.098,0.367,0.226,0.407,0.475c0.104,0.474,0.203,0.923,0.297,1.345c0.177,0.854,0.289,1.641,0.383,2.287
		c0.107,0.633,0.137,1.187,0.179,1.542C199.438,185.293,199.443,185.5,199.443,185.5z"/>
</g>
<g>
	<path fill="#E5AF0D" d="M224.609,132.119c0,0-0.181,0.102-0.51,0.259c-0.326,0.146-0.816,0.405-1.415,0.637
		c-0.604,0.251-1.337,0.558-2.161,0.844c-0.409,0.136-0.846,0.282-1.307,0.435c-0.233,0.093-0.429,0.016-0.616-0.107
		c-0.189-0.115-0.407-0.143-0.62-0.207c-3.439-0.913-8.024-2.13-12.609-3.348s-9.17-2.435-12.608-3.348
		c-0.217-0.049-0.42-0.134-0.639-0.137c-0.228,0.025-0.426-0.036-0.579-0.249c-0.322-0.368-0.627-0.717-0.914-1.045
		c-0.578-0.637-1.063-1.266-1.465-1.775c-0.405-0.494-0.706-0.95-0.919-1.233c-0.207-0.303-0.317-0.465-0.317-0.465
		s0.176-0.085,0.506-0.246c0.325-0.14,0.813-0.387,1.41-0.615c0.601-0.243,1.334-0.548,2.152-0.814
		c0.412-0.143,0.85-0.294,1.312-0.454c0.239-0.109,0.441-0.063,0.626,0.071c0.192,0.106,0.41,0.133,0.623,0.198
		c3.439,0.913,8.024,2.13,12.609,3.348s9.17,2.435,12.608,3.348c0.217,0.05,0.42,0.134,0.642,0.128
		c0.224-0.013,0.431,0.016,0.588,0.213c0.324,0.361,0.631,0.704,0.919,1.026c0.573,0.657,1.058,1.287,1.457,1.804
		c0.405,0.499,0.702,0.966,0.913,1.255C224.503,131.941,224.609,132.119,224.609,132.119z"/>
</g>
<g>
	<path fill="#E5AF0D" d="M220.57,66.645c0,0-0.088,0.188-0.265,0.506c-0.182,0.309-0.431,0.804-0.784,1.34
		c-0.346,0.554-0.765,1.229-1.27,1.94c-0.255,0.349-0.526,0.721-0.813,1.112c-0.137,0.211-0.34,0.261-0.564,0.271
		c-0.221,0.016-0.414,0.12-0.625,0.192c-3.331,1.251-7.771,2.919-12.213,4.587c-4.44,1.668-8.882,3.336-12.212,4.588
		c-0.206,0.085-0.42,0.134-0.601,0.259c-0.17,0.151-0.367,0.217-0.616,0.133c-0.476-0.113-0.926-0.22-1.35-0.321
		c-0.841-0.183-1.602-0.415-2.224-0.596c-0.617-0.167-1.127-0.365-1.464-0.472c-0.345-0.127-0.528-0.194-0.528-0.194
		s0.094-0.172,0.27-0.494c0.184-0.303,0.438-0.787,0.791-1.318c0.35-0.547,0.77-1.221,1.281-1.913
		c0.253-0.355,0.521-0.733,0.805-1.131c0.132-0.227,0.323-0.308,0.552-0.305c0.218-0.025,0.411-0.13,0.622-0.201
		c3.331-1.251,7.771-2.919,12.213-4.587c4.44-1.668,8.882-3.336,12.212-4.588c0.206-0.084,0.42-0.134,0.598-0.267
		c0.174-0.141,0.36-0.237,0.603-0.168c0.473,0.106,0.922,0.208,1.344,0.303c0.848,0.203,1.608,0.435,2.233,0.624
		c0.618,0.171,1.133,0.38,1.472,0.493C220.381,66.562,220.57,66.645,220.57,66.645z"/>
</g>
<g>
	<path fill="#E5AF0D" d="M178.28,17.295c0,0,0.025,0.206,0.046,0.57c0.012,0.357,0.064,0.91,0.051,1.551
		c0.003,0.653,0.009,1.448-0.04,2.319c-0.029,0.431-0.061,0.89-0.094,1.374c-0.004,0.252-0.149,0.403-0.334,0.53
		c-0.179,0.131-0.286,0.323-0.427,0.496c-2.151,2.833-5.02,6.612-7.888,10.391s-5.736,7.557-7.888,10.391
		c-0.128,0.182-0.283,0.337-0.37,0.539c-0.063,0.219-0.195,0.38-0.45,0.441c-0.462,0.158-0.901,0.308-1.313,0.448
		c-0.809,0.293-1.575,0.502-2.199,0.68c-0.61,0.188-1.147,0.292-1.489,0.381c-0.359,0.077-0.551,0.117-0.551,0.117
		s-0.013-0.195-0.035-0.562c-0.006-0.354-0.05-0.898-0.033-1.537c0.004-0.648-0.001-1.443,0.064-2.301
		c0.024-0.435,0.051-0.897,0.078-1.386c-0.01-0.262,0.109-0.432,0.304-0.552c0.171-0.138,0.278-0.329,0.42-0.501
		c2.151-2.833,5.02-6.612,7.888-10.391s5.736-7.557,7.888-10.391c0.129-0.182,0.284-0.337,0.362-0.544
		c0.073-0.212,0.179-0.393,0.421-0.463c0.457-0.162,0.891-0.316,1.298-0.46c0.826-0.281,1.593-0.49,2.223-0.663
		c0.615-0.185,1.161-0.282,1.508-0.367C178.075,17.326,178.28,17.295,178.28,17.295z"/>
</g>
<g>
	<path fill="#E5AF0D" d="M113.148,2.322c0,0,0.145,0.148,0.381,0.426c0.226,0.277,0.602,0.685,0.979,1.203
		c0.397,0.518,0.882,1.147,1.37,1.869c0.237,0.361,0.49,0.745,0.756,1.15c0.149,0.202,0.125,0.41,0.055,0.623
		c-0.063,0.212-0.033,0.43-0.041,0.652c0,3.553,0,8.292,0,13.029c0,4.738,0,9.477,0,13.03c0.008,0.222-0.021,0.439,0.031,0.652
		c0.082,0.212,0.074,0.42-0.092,0.623c-0.273,0.405-0.532,0.789-0.775,1.15c-0.467,0.722-0.951,1.351-1.34,1.869
		c-0.373,0.519-0.737,0.926-0.956,1.203c-0.24,0.278-0.368,0.426-0.368,0.426s-0.128-0.148-0.368-0.426
		c-0.219-0.277-0.583-0.685-0.956-1.203c-0.389-0.518-0.873-1.147-1.34-1.869c-0.244-0.361-0.502-0.745-0.775-1.15
		c-0.167-0.202-0.174-0.41-0.092-0.623c0.053-0.212,0.023-0.43,0.031-0.652c0-3.554,0-8.292,0-13.03c0-4.738,0-9.476,0-13.029
		c-0.007-0.222,0.022-0.44-0.041-0.652c-0.07-0.212-0.095-0.42,0.055-0.623c0.267-0.405,0.519-0.789,0.756-1.15
		c0.488-0.722,0.972-1.351,1.37-1.869c0.377-0.519,0.753-0.926,0.979-1.203C113.004,2.47,113.148,2.322,113.148,2.322z"/>
</g>
<g>
	<path fill="#E5AF0D" d="M112.148,70.75c0,0,0.212-0.108,0.611-0.311c0.398-0.183,0.982-0.491,1.725-0.796
		c0.747-0.309,1.712-0.633,2.843-0.967c0.567-0.162,1.154-0.273,1.794-0.421c0.321-0.083,0.63-0.019,0.94,0.083
		c0.311,0.091,0.639,0.125,0.967,0.204c0.661,0.135,1.349,0.276,2.061,0.422c0.711,0.15,1.432,0.381,2.18,0.58
		c0.373,0.105,0.751,0.212,1.134,0.32c0.375,0.134,0.755,0.269,1.139,0.406c0.761,0.293,1.567,0.516,2.333,0.887
		c0.774,0.348,1.561,0.702,2.358,1.06c0.766,0.42,1.542,0.845,2.324,1.273c0.798,0.403,1.513,0.951,2.273,1.435l1.126,0.751
		c0.371,0.258,0.712,0.553,1.069,0.829c0.7,0.568,1.428,1.107,2.1,1.701c0.651,0.614,1.301,1.226,1.944,1.833
		c0.666,0.588,1.214,1.269,1.799,1.904c0.565,0.65,1.17,1.261,1.678,1.922c0.505,0.664,1.001,1.317,1.487,1.956
		c0.495,0.634,0.959,1.266,1.353,1.915c0.411,0.639,0.812,1.261,1.198,1.862c0.396,0.597,0.76,1.183,1.059,1.77
		c0.164,0.286,0.296,0.582,0.486,0.837c0.213,0.243,0.354,0.518,0.372,0.849c0.077,0.633,0.15,1.233,0.22,1.797
		c0.104,1.13,0.092,2.142,0.103,2.956c0.02,0.811-0.025,1.464-0.034,1.896c-0.025,0.438-0.039,0.672-0.039,0.672
		s-0.188-0.147-0.54-0.424c-0.336-0.282-0.859-0.678-1.451-1.202c-0.607-0.516-1.33-1.14-2.118-1.848
		c-0.42-0.334-0.866-0.689-1.336-1.063c-0.256-0.173-0.396-0.414-0.471-0.7c-0.097-0.274-0.259-0.519-0.396-0.786
		c-0.271-0.537-0.6-1.063-0.955-1.596c-0.347-0.539-0.706-1.096-1.074-1.669c-0.352-0.587-0.766-1.146-1.205-1.705
		c-0.43-0.566-0.868-1.145-1.314-1.732c-0.447-0.587-0.978-1.111-1.472-1.683c-0.512-0.554-0.988-1.16-1.567-1.661
		c-0.557-0.526-1.118-1.056-1.682-1.588c-0.579-0.513-1.206-0.969-1.806-1.459c-0.306-0.236-0.598-0.494-0.915-0.714l-0.964-0.639
		c-0.65-0.41-1.255-0.89-1.938-1.226c-0.666-0.366-1.326-0.729-1.979-1.087c-0.68-0.305-1.351-0.605-2.012-0.902
		c-0.649-0.322-1.345-0.503-1.994-0.757c-0.329-0.118-0.653-0.235-0.974-0.351c-0.33-0.092-0.655-0.183-0.976-0.272
		c-0.645-0.168-1.261-0.373-1.876-0.501c-0.617-0.126-1.212-0.248-1.785-0.364c-0.286-0.058-0.563-0.135-0.851-0.113
		c-0.287,0.02-0.56,0.004-0.807-0.159c-0.497-0.293-0.982-0.593-1.434-0.841c-0.907-0.483-1.716-0.987-2.435-1.358
		c-0.725-0.342-1.293-0.679-1.681-0.882C112.355,70.869,112.148,70.75,112.148,70.75z"/>
</g>
</svg>
