<?xml version="1.0" encoding="utf-8"?>
<!-- Generator: Adobe Illustrator 16.0.0, SVG Export Plug-In . SVG Version: 6.00 Build 0)  -->
<!DOCTYPE svg PUBLIC "-//W3C//DTD SVG 1.1//EN" "http://www.w3.org/Graphics/SVG/1.1/DTD/svg11.dtd">
<svg version="1.1" id="Layer_1" xmlns="http://www.w3.org/2000/svg" xmlns:xlink="http://www.w3.org/1999/xlink" x="0px" y="0px"
	 width="227px" height="237.5px" viewBox="0 0 227 237.5" enable-background="new 0 0 227 237.5" xml:space="preserve">
<path fill="none" stroke="#E5AF0D" stroke-width="7" d="M116.5,28H108h-1.333c-7,1.5-7.167,6.5-7.167,6.5V81
	c0,7.833,8.5,10.5,8.5,10.5v117h8.5"/>
<g>
	<path fill="none" stroke="#E5AF0D" stroke-width="7" d="M7.965,124.991C7.967,124.996,7.973,125,7.979,125h68.043
		c0.005,0,0.011-0.004,0.013-0.009l0.299-0.824c0-18.962-15.372-34.333-34.333-34.333S7.667,105.204,7.667,124.167L7.965,124.991z"
		/>
</g>
<g>
	<path fill="none" stroke="#E5AF0D" stroke-width="7" d="M32.333,125.5c0,0,8.667,19.334,20,0"/>
</g>
<g>
	<path fill="none" stroke="#E5AF0D" stroke-width="7" d="M99.5,55.833L42.01,67.498C42.004,67.499,42,67.504,42,67.51V89.5"/>
</g>
<path fill="none" stroke="#E5AF0D" stroke-width="7" d="M110.666,28h8.5h1.333c7,1.5,7.167,6.5,7.167,6.5V81
	c0,7.833-8.5,10.5-8.5,10.5v117h-8.5"/>
<g>
	<path fill="none" stroke="#E5AF0D" stroke-width="7" d="M219.201,124.991c-0.002,0.005-0.009,0.009-0.014,0.009h-68.043
		c-0.005,0-0.012-0.004-0.014-0.009l-0.299-0.824c0-18.962,15.372-34.333,34.334-34.333s34.334,15.371,34.334,34.333
		L219.201,124.991z"/>
</g>
<g>
	<path fill="none" stroke="#E5AF0D" stroke-width="7" d="M194.832,125.5c0,0-8.666,19.334-20,0"/>
</g>
<g>
	<path fill="none" stroke="#E5AF0D" stroke-width="7" d="M127.666,55.833l57.49,11.665c0.006,0.001,0.01,0.006,0.01,0.012V89.5"/>
</g>
</svg>
