<?xml version="1.0" encoding="utf-8"?>
<!-- Generator: Adobe Illustrator 16.0.0, SVG Export Plug-In . SVG Version: 6.00 Build 0)  -->
<!DOCTYPE svg PUBLIC "-//W3C//DTD SVG 1.1//EN" "http://www.w3.org/Graphics/SVG/1.1/DTD/svg11.dtd">
<svg version="1.1" id="Layer_1" xmlns="http://www.w3.org/2000/svg" xmlns:xlink="http://www.w3.org/1999/xlink" x="0px" y="0px"
	 width="227px" height="237.5px" viewBox="0 0 227 237.5" enable-background="new 0 0 227 237.5" xml:space="preserve">
<line fill="none" stroke="#E5AF0D" stroke-width="7" x1="76.931" y1="116.33" x2="76.931" y2="139.037"/>
<path fill="none" stroke="#E5AF0D" stroke-width="7" d="M148.403,10.238c0,0-2.979,48.393,42.437,106.092l0,0H34.494
	C79.909,58.631,76.931,10.238,76.931,10.238V8.75h71.472V10.238z"/>
<path fill="none" stroke="#E5AF0D" stroke-width="7" d="M97.405,10.238c0,0,5.583,60.677-26.43,106.092"/>
<path fill="none" stroke="#E5AF0D" stroke-width="7" d="M129.419,10.238c0,0-5.583,60.677,26.43,106.092"/>
<path fill="none" stroke="#E5AF0D" stroke-width="7" d="M109.13,117.447c0,0-12.843,39.459,0,89.712"/>
<path fill="none" stroke="#E5AF0D" stroke-width="7" d="M123.733,117.447c0,0,12.842,39.459,0,89.712"/>
<circle fill="none" stroke="#E5AF0D" stroke-width="7" cx="76.931" cy="150.019" r="8.562"/>
<path fill="none" stroke="#E5AF0D" stroke-width="7" d="M163.153,228.75h0.62c2.234-21.591-10.422-21.591-10.422-21.591h-0.854
	H76.931c0,0-12.657,0-10.423,21.591h97.529"/>
</svg>
