<?xml version="1.0" encoding="utf-8"?>
<!-- Generator: Adobe Illustrator 16.0.0, SVG Export Plug-In . SVG Version: 6.00 Build 0)  -->
<!DOCTYPE svg PUBLIC "-//W3C//DTD SVG 1.1//EN" "http://www.w3.org/Graphics/SVG/1.1/DTD/svg11.dtd">
<svg version="1.1" id="Layer_1" xmlns="http://www.w3.org/2000/svg" xmlns:xlink="http://www.w3.org/1999/xlink" x="0px" y="0px"
	 width="227px" height="237.5px" viewBox="0 0 227 237.5" enable-background="new 0 0 227 237.5" xml:space="preserve">
<g>
	<path fill="none" stroke="#E5AF0D" stroke-width="7" d="M20,121.469c1.375,0.017,4.75,0.031,7.5,0.031h49
		c2.75,0,6.575-0.014,8.5-0.031s3.5-2.281,3.5-5.031V56.5c0-2.75-0.112-5-0.25-5s-2.5,0-5.25,0H23c-2.75,0-5.112,0-5.25,0
		s-0.25,2.25-0.25,5v59.938C17.5,119.188,18.625,121.452,20,121.469z"/>
</g>
<g>
	<path fill="none" stroke="#E5AF0D" stroke-width="7" d="M53,122.313c0,0,0,48.021,0,60.688c0,12.33,6.167,21.167,17.25,28.167
		s20.583,4.667,29,0s15.491-23.486,15.491-23.486c0.968-2.574,1.759-6.931,1.759-9.681c0,0,0-70.882,0-80.5c0-11,4-27,11-32.167
		s30.213-2.008,30.213-2.008c2.725,0.371,6.003,2.665,7.285,5.098c0,0,7.684,14.577,7.502,29.077c-0.172,13.702,0,32.625,0,32.625"
		/>
</g>
<g>
	<path fill="none" stroke="#E5AF0D" stroke-width="7" d="M26,51.5V19.75c0-2.75,0-5.394,0-5.875S28.25,13,31,13h42.5
		c2.75,0,5,0.394,5,0.875s0,3.125,0,5.875V51.5"/>
</g>
<g>
	<line fill="none" stroke="#E5AF0D" stroke-width="7" x1="75.5" y1="66.5" x2="75.5" y2="105"/>
</g>
<g>
	<path fill="none" stroke="#E5AF0D" stroke-width="7" d="M142,183c1.925,0,5.75,0,8.5,0h49c2.75,0,6.125,0,7.5,0s2.5-2.25,2.5-5v-40
		c0-2.75-1.125-5-2.5-5s-4.75,0-7.5,0h-49c-2.75,0-6.575,0-8.5,0s-3.5,2.25-3.5,5v40C138.5,180.75,140.075,183,142,183z"/>
</g>
<g>
	<path fill="none" stroke="#E5AF0D" stroke-width="7" d="M147.5,184.5v28c0,2.75,0,5.112,0,5.25s2.25,0.25,5,0.25H195
		c2.75,0,5-0.112,5-0.25s0-2.5,0-5.25v-28"/>
</g>
<g>
	<line fill="none" stroke="#E5AF0D" stroke-width="7" x1="153.25" y1="145" x2="153.25" y2="172"/>
</g>
<g>
	<line fill="none" stroke="#E5AF0D" stroke-width="7" x1="41.667" y1="27.167" x2="41.667" y2="36.167"/>
</g>
<g>
	<line fill="none" stroke="#E5AF0D" stroke-width="7" x1="61" y1="27.167" x2="61" y2="36.167"/>
</g>
<g>
	<line fill="none" stroke="#E5AF0D" stroke-width="7" x1="164" y1="195.834" x2="164" y2="205.167"/>
</g>
<g>
	<line fill="none" stroke="#E5AF0D" stroke-width="7" x1="185.334" y1="195.834" x2="185.334" y2="205.167"/>
</g>
</svg>
