<?xml version="1.0" encoding="utf-8"?>
<!-- Generator: Adobe Illustrator 16.0.0, SVG Export Plug-In . SVG Version: 6.00 Build 0)  -->
<!DOCTYPE svg PUBLIC "-//W3C//DTD SVG 1.1//EN" "http://www.w3.org/Graphics/SVG/1.1/DTD/svg11.dtd">
<svg version="1.1" id="Layer_1" xmlns="http://www.w3.org/2000/svg" xmlns:xlink="http://www.w3.org/1999/xlink" x="0px" y="0px"
	 width="227px" height="237.5px" viewBox="0 0 227 237.5" enable-background="new 0 0 227 237.5" xml:space="preserve">
<path fill="none" stroke="#E5AF0D" stroke-width="7" d="M114.511,188.879H20.463c0,0-11.135,0.514-12.334-10.793V56.802
	c0,0,0.342-7.538,9.765-8.736h96.617"/>
<g>
	<path fill="none" stroke="#E5AF0D" stroke-width="7" d="M27.145,188.879l4.898,32.06c0.415,2.718,0.755,5.521,0.755,6.228
		s2.25,1.285,5,1.285h76.713"/>
</g>
<g>
	<path fill="#E5AF0D" d="M33.183,165.753c0,0,0.639-0.133,1.838-0.381c1.199-0.226,2.957-0.602,5.195-0.979
		c2.238-0.398,4.955-0.885,8.072-1.35c1.559-0.243,3.217-0.502,4.965-0.775c0.874-0.147,1.771-0.124,2.688-0.055
		c0.918,0.048,1.857,0.042,2.816,0.04c15.345,0,35.806,0,56.266,0c20.46,0,40.921,0,56.267,0c0.959-0.004,1.897,0.014,2.815-0.031
		c0.918-0.082,1.814-0.074,2.689,0.092c1.748,0.273,3.406,0.532,4.965,0.775c3.117,0.468,5.834,0.951,8.072,1.34
		c2.237,0.374,3.996,0.737,5.195,0.956c1.198,0.24,1.838,0.368,1.838,0.368s-0.64,0.128-1.838,0.368
		c-1.199,0.219-2.958,0.582-5.195,0.956c-2.238,0.389-4.955,0.872-8.072,1.34c-1.559,0.243-3.217,0.502-4.965,0.775
		c-0.875,0.166-1.771,0.174-2.689,0.092c-0.918-0.045-1.856-0.027-2.815-0.031c-15.346,0-35.806,0-56.267,0
		c-20.46,0-40.92,0-56.266,0c-0.959-0.002-1.898-0.008-2.816,0.04c-0.918,0.069-1.814,0.093-2.688-0.055
		c-1.749-0.273-3.407-0.532-4.965-0.775c-3.117-0.465-5.834-0.951-8.072-1.35c-2.238-0.378-3.996-0.754-5.195-0.979
		C33.822,165.886,33.183,165.753,33.183,165.753z"/>
</g>
<g>
	<path fill="none" stroke="#E5AF0D" stroke-width="7" d="M32.797,70.592c0,0.236,0,2.679,0,5.429v68.973c0,2.75,0,5.192,0,5.428
		s2.25,0.428,5,0.428h33.169c2.75,0,5-0.192,5-0.428s0-2.678,0-5.428V76.021c0-2.75,0-5.193,0-5.429c0-0.235-2.25-0.428-5-0.428
		H37.797C35.047,70.164,32.797,70.356,32.797,70.592z"/>
</g>
<g>
	<line fill="none" stroke="#E5AF0D" stroke-width="7" x1="32.797" y1="108.194" x2="73.654" y2="108.194"/>
</g>
<g>
	<line fill="none" stroke="#E5AF0D" stroke-width="7" x1="35.367" y1="132.348" x2="75.967" y2="132.348"/>
</g>
<g>
	<path fill="#E5AF0D" d="M47.701,123.869c0,0,0.056-0.127,0.162-0.367c0.105-0.223,0.26-0.634,0.457-0.972
		c0.197-0.368,0.436-0.815,0.71-1.329c0.137-0.256,0.283-0.53,0.437-0.817c0.077-0.151,0.155-0.126,0.236-0.056
		c0.081,0.064,0.163,0.033,0.248,0.041c1.349,0,3.147,0,4.946,0s3.597,0,4.946,0c0.084-0.011,0.167,0.026,0.248-0.031
		c0.081-0.081,0.16-0.077,0.236,0.095c0.154,0.286,0.3,0.557,0.437,0.812c0.274,0.509,0.513,0.953,0.71,1.319
		c0.197,0.339,0.351,0.735,0.457,0.951c0.105,0.232,0.162,0.355,0.162,0.355s-0.056,0.124-0.162,0.355
		c-0.105,0.216-0.26,0.611-0.457,0.951c-0.197,0.366-0.436,0.81-0.71,1.319c-0.137,0.255-0.283,0.526-0.437,0.812
		c-0.077,0.172-0.155,0.176-0.236,0.095c-0.081-0.057-0.163-0.021-0.248-0.031c-1.349,0-3.147,0-4.946,0s-3.597,0-4.946,0
		c-0.084,0.008-0.167-0.023-0.248,0.041c-0.081,0.07-0.16,0.095-0.236-0.056c-0.154-0.288-0.3-0.561-0.437-0.817
		c-0.274-0.513-0.513-0.96-0.71-1.329c-0.197-0.338-0.351-0.749-0.457-0.972C47.757,123.996,47.701,123.869,47.701,123.869z"/>
</g>
<g>
	<path fill="none" stroke="#E5AF0D" stroke-width="7" d="M27.145,46.01l4.126-30.505c0.369-2.725,0.863-4.955,1.099-4.955
		s2.678,0,5.428,0h76.713"/>
</g>
<circle fill="none" stroke="#E5AF0D" stroke-width="7" cx="73.654" cy="29.05" r="10.278"/>
<circle fill="none" stroke="#E5AF0D" stroke-width="7" cx="73.397" cy="208.407" r="10.279"/>
<path fill="none" stroke="#E5AF0D" stroke-width="7" d="M113.739,188.881h94.047c0,0,11.137,0.514,12.335-10.793V56.804
	c0,0-0.343-7.537-9.765-8.736h-96.617"/>
<g>
	<path fill="none" stroke="#E5AF0D" stroke-width="7" d="M201.106,188.881l-4.898,32.06c-0.415,2.718-0.755,5.521-0.755,6.228
		s-2.25,1.285-5,1.285h-76.714"/>
</g>
<g>
	<path fill="none" stroke="#E5AF0D" stroke-width="7" d="M152.283,150.423c0-0.235,0-2.679,0-5.429V76.022c0-2.75,0-5.193,0-5.428
		s2.25-0.428,5-0.428h33.17c2.75,0,5,0.193,5,0.428s0,2.678,0,5.428v68.972c0,2.75,0,5.193,0,5.429s-2.25,0.429-5,0.429h-33.17
		C154.533,150.852,152.283,150.658,152.283,150.423z"/>
</g>
<g>
	<line fill="none" stroke="#E5AF0D" stroke-width="7" x1="152.283" y1="112.821" x2="193.14" y2="112.821"/>
</g>
<g>
	<line fill="none" stroke="#E5AF0D" stroke-width="7" x1="154.854" y1="88.667" x2="195.453" y2="88.667"/>
</g>
<g>
	<path fill="#E5AF0D" d="M167.188,97.146c0,0,0.057-0.127,0.161-0.367c0.105-0.223,0.261-0.634,0.457-0.972
		c0.197-0.368,0.436-0.815,0.71-1.329c0.137-0.257,0.282-0.53,0.437-0.817c0.077-0.151,0.155-0.126,0.236-0.056
		c0.08,0.064,0.163,0.033,0.247,0.041c1.35,0,3.148,0,4.947,0c1.798,0,3.597,0,4.946,0c0.084-0.011,0.167,0.026,0.247-0.031
		c0.081-0.081,0.16-0.077,0.236,0.095c0.154,0.286,0.3,0.557,0.437,0.812c0.274,0.509,0.513,0.953,0.71,1.319
		c0.196,0.339,0.352,0.735,0.457,0.951c0.104,0.232,0.161,0.355,0.161,0.355s-0.057,0.124-0.161,0.355
		c-0.105,0.216-0.261,0.611-0.457,0.951c-0.197,0.366-0.436,0.81-0.71,1.319c-0.137,0.255-0.282,0.526-0.437,0.812
		c-0.076,0.172-0.155,0.176-0.236,0.095c-0.08-0.057-0.163-0.021-0.247-0.031c-1.35,0-3.148,0-4.946,0c-1.799,0-3.598,0-4.947,0
		c-0.084,0.008-0.167-0.023-0.247,0.041c-0.081,0.07-0.159,0.095-0.236-0.056c-0.154-0.288-0.3-0.561-0.437-0.817
		c-0.274-0.513-0.513-0.96-0.71-1.329c-0.196-0.338-0.352-0.749-0.457-0.972C167.244,97.274,167.188,97.146,167.188,97.146z"/>
</g>
<g>
	<path fill="none" stroke="#E5AF0D" stroke-width="7" d="M201.106,46.012l-4.127-30.505c-0.368-2.725-0.862-4.955-1.099-4.955
		c-0.235,0-2.678,0-5.428,0h-76.714"/>
</g>
<circle fill="none" stroke="#E5AF0D" stroke-width="7" cx="154.596" cy="29.053" r="10.279"/>
<circle fill="none" stroke="#E5AF0D" stroke-width="7" cx="154.853" cy="208.409" r="10.279"/>
<g>
	<path fill="none" stroke="#E5AF0D" stroke-width="7" d="M92.155,70.335c0,0.236,0,2.679,0,5.429v68.972c0,2.75,0,5.193,0,5.429
		s2.25,0.429,5,0.429h33.169c2.75,0,5-0.193,5-0.429s0-2.679,0-5.429V75.764c0-2.75,0-5.193,0-5.429c0-0.235-2.25-0.428-5-0.428
		H97.155C94.405,69.907,92.155,70.1,92.155,70.335z"/>
</g>
<g>
	<line fill="none" stroke="#E5AF0D" stroke-width="7" x1="92.155" y1="95.603" x2="133.011" y2="95.603"/>
</g>
<g>
	<line fill="none" stroke="#E5AF0D" stroke-width="7" x1="94.725" y1="119.757" x2="135.324" y2="119.757"/>
</g>
<g>
	<path fill="#E5AF0D" d="M107.059,111.277c0,0,0.056-0.127,0.162-0.367c0.105-0.223,0.26-0.634,0.457-0.972
		c0.197-0.368,0.436-0.815,0.71-1.329c0.137-0.257,0.283-0.53,0.437-0.817c0.077-0.151,0.156-0.126,0.236-0.056
		c0.081,0.064,0.163,0.033,0.248,0.041c1.349,0,3.148,0,4.947,0c1.798,0,3.597,0,4.946,0c0.084-0.011,0.167,0.026,0.248-0.031
		c0.081-0.081,0.16-0.077,0.236,0.095c0.154,0.286,0.3,0.557,0.437,0.812c0.274,0.509,0.513,0.953,0.71,1.319
		c0.197,0.339,0.351,0.735,0.457,0.951c0.105,0.232,0.162,0.355,0.162,0.355s-0.056,0.124-0.162,0.355
		c-0.105,0.216-0.26,0.611-0.457,0.951c-0.197,0.366-0.436,0.81-0.71,1.319c-0.137,0.255-0.283,0.526-0.437,0.812
		c-0.077,0.172-0.156,0.176-0.236,0.095c-0.081-0.057-0.163-0.021-0.248-0.031c-1.349,0-3.148,0-4.946,0c-1.799,0-3.598,0-4.947,0
		c-0.084,0.008-0.167-0.023-0.248,0.041c-0.081,0.07-0.16,0.095-0.236-0.056c-0.154-0.288-0.3-0.561-0.437-0.817
		c-0.274-0.513-0.513-0.96-0.71-1.329c-0.197-0.338-0.351-0.749-0.457-0.972C107.115,111.405,107.059,111.277,107.059,111.277z"/>
</g>
<circle fill="none" stroke="#E5AF0D" stroke-width="7" cx="113.74" cy="29.05" r="10.278"/>
<circle fill="none" stroke="#E5AF0D" stroke-width="7" cx="113.483" cy="208.407" r="10.279"/>
</svg>
