<?xml version="1.0" encoding="utf-8"?>
<!-- Generator: Adobe Illustrator 16.0.0, SVG Export Plug-In . SVG Version: 6.00 Build 0)  -->
<!DOCTYPE svg PUBLIC "-//W3C//DTD SVG 1.1//EN" "http://www.w3.org/Graphics/SVG/1.1/DTD/svg11.dtd">
<svg version="1.1" id="Layer_1" xmlns="http://www.w3.org/2000/svg" xmlns:xlink="http://www.w3.org/1999/xlink" x="0px" y="0px"
	 width="227px" height="237.5px" viewBox="0 0 227 237.5" enable-background="new 0 0 227 237.5" xml:space="preserve">
<path fill="none" stroke="#E5AF0D" stroke-width="5" d="M221.527,114.952V76.753V64.68C197.983,43.716,158.879,30,114.621,30.001
	c-44.978,0-84.631,14.165-108.042,35.708v8.763v38.114"/>
<ellipse fill="none" stroke="#E5AF0D" stroke-width="5" cx="114.052" cy="185.079" rx="55.589" ry="17.105"/>
<path fill="none" stroke="#E5AF0D" stroke-width="5" d="M169.642,185.079l23.375-65.564c0,0-79.819-59.296-156.789,0l22.236,65.564"
	/>
<line fill="none" stroke="#E5AF0D" stroke-width="3" x1="45.931" y1="112.661" x2="61.123" y2="155.374"/>
<line fill="none" stroke="#E5AF0D" stroke-width="3" x1="58.463" y1="105.531" x2="70.721" y2="149.333"/>
<line fill="none" stroke="#E5AF0D" stroke-width="3" x1="83.264" y1="98.869" x2="88.111" y2="146.824"/>
<line fill="none" stroke="#E5AF0D" stroke-width="3" x1="101.794" y1="95.853" x2="102.079" y2="143.507"/>
<line fill="none" stroke="#E5AF0D" stroke-width="3" x1="124.885" y1="95.853" x2="124.885" y2="143.507"/>
<line fill="none" stroke="#E5AF0D" stroke-width="3" x1="143.984" y1="98.704" x2="137.713" y2="144.031"/>
<line fill="none" stroke="#E5AF0D" stroke-width="3" x1="167.644" y1="105.531" x2="156.242" y2="151.04"/>
<line fill="none" stroke="#E5AF0D" stroke-width="3" x1="180.189" y1="112.586" x2="167.644" y2="155.374"/>
<path fill="none" stroke="#E5AF0D" stroke-width="5" d="M51.333,158.854c0,0,67.608-33.354,126.333,0l4.719-9.521
	c21.076-8.433,39.138-21.029,39.138-34.381c0-25.505-48.118-46.182-107.471-46.182C54.696,68.771,6.58,89.447,6.58,114.952
	c0,13.654,17.429,24.718,39.352,33.175"/>
</svg>
