<?xml version="1.0" encoding="utf-8"?>
<!-- Generator: Adobe Illustrator 16.0.0, SVG Export Plug-In . SVG Version: 6.00 Build 0)  -->
<!DOCTYPE svg PUBLIC "-//W3C//DTD SVG 1.1//EN" "http://www.w3.org/Graphics/SVG/1.1/DTD/svg11.dtd">
<svg version="1.1" id="Layer_1" xmlns="http://www.w3.org/2000/svg" xmlns:xlink="http://www.w3.org/1999/xlink" x="0px" y="0px"
	 width="227px" height="237.5px" viewBox="0 0 227 237.5" enable-background="new 0 0 227 237.5" xml:space="preserve">
<line fill="none" stroke="#E5AF0D" stroke-width="5" x1="149.644" y1="171.693" x2="213.129" y2="213.159"/>
<g>
	<path fill="none" stroke="#E5AF0D" stroke-width="5" d="M174.146,231.75c2.544-1.696,8.815-4.724,13.938-6.728l16.844-6.592
		c5.122-2.004,9.717-4.222,10.212-4.929s2.635-4.581,4.755-8.61s3.855-7.788,3.855-8.354s-3.747-3.521-8.326-6.566l-37.836-25.162
		c-4.579-3.046-8.557-5.489-8.84-5.431c-0.282,0.059-4.245,2.621-8.808,5.693l-13.053,8.789c-4.563,3.072-11.492,2.419-15.399-1.452
		L60.975,106.44c-2.688-4.799-2.368-12.455,0.71-17.013l9.112-13.495c3.078-4.558,5.615-8.432,5.639-8.609s-2.458-4.063-5.513-8.636
		L45.281,20.314C42.226,15.742,39.475,12,39.169,12s-3.892,1.793-7.968,3.984s-7.874,4.215-8.439,4.498s-2.794,4.653-4.952,9.712
		L9.209,50.35c-2.158,5.059-4.213,9.661-4.567,10.226s1.207,5.131,3.466,10.145C8.109,70.721,53.348,171.094,174.146,231.75
		L174.146,231.75z"/>
</g>
<line fill="none" stroke="#E5AF0D" stroke-width="5" x1="64.191" y1="85.2" x2="23.79" y2="23.309"/>
<path fill="none" stroke="#E5AF0D" stroke-width="5" d="M4,62.633"/>
</svg>
