<?xml version="1.0" encoding="utf-8"?>
<!-- Generator: Adobe Illustrator 16.0.0, SVG Export Plug-In . SVG Version: 6.00 Build 0)  -->
<!DOCTYPE svg PUBLIC "-//W3C//DTD SVG 1.1//EN" "http://www.w3.org/Graphics/SVG/1.1/DTD/svg11.dtd">
<svg version="1.1" id="Layer_1" xmlns="http://www.w3.org/2000/svg" xmlns:xlink="http://www.w3.org/1999/xlink" x="0px" y="0px"
	 width="227px" height="237.5px" viewBox="0 0 227 237.5" enable-background="new 0 0 227 237.5" xml:space="preserve">
<g>
	<path fill="#E5AF0D" d="M65.678,108.933c0,0-0.939-0.328-2.649-1.083c-1.698-0.771-4.204-1.919-7.245-3.674
		c-3.047-1.742-6.696-4.009-10.603-7.06c-1.958-1.518-4.008-3.202-6.069-5.115c-1.059-0.929-1.95-2.068-2.844-3.239
		c-0.872-1.192-1.82-2.363-2.71-3.627c-3.625-4.988-6.973-10.911-9.36-17.67c-1.172-3.384-2.099-6.964-2.711-10.688
		c-0.12-0.936-0.24-1.876-0.361-2.821l-0.045-0.354l-0.022-0.178l-0.011-0.089l-0.02-0.224l-0.039-0.674l-0.039-0.676l-0.019-0.342
		l0.003-0.421l0.034-1.688l0.151-1.577c0.146-1.043,0.305-2.097,0.58-3.116c0.991-4.127,2.979-7.915,5.396-11.284
		c2.447-3.361,5.358-6.322,8.518-8.951c6.345-5.236,13.622-9.244,21.254-12.215c7.641-2.955,15.678-4.906,23.811-5.506
		c8.096-0.583,16.438,0.138,23.976,3.434c1.868,0.841,3.671,1.825,5.364,2.978c1.679,1.177,3.237,2.511,4.644,3.975
		c1.377,1.493,2.592,3.104,3.622,4.796c0.976,1.715,1.863,3.464,2.465,5.266c0.357,0.887,0.567,1.799,0.843,2.69
		c0.228,0.922,0.411,1.744,0.607,2.739c0.271,1.62,0.539,3.216,0.802,4.785c0.58,3.083,0.891,6.316,1.277,9.325
		c0.21,1.513,0.231,2.998,0.402,4.443c0.17,1.447,0.324,2.856,0.148,4.262c-0.113,1.392-0.223,2.749-0.33,4.067
		c-0.133,1.317-0.353,2.601-0.518,3.833c-0.751,4.939-1.946,9.18-3.419,12.476c-1.466,3.307-3.246,5.588-4.641,6.882
		c-0.703,0.65-1.309,1.058-1.727,1.305c-0.429,0.236-0.661,0.32-0.661,0.321c0,0,0.205-0.146,0.545-0.474
		c0.158-0.18,0.366-0.385,0.583-0.656c0.2-0.289,0.459-0.589,0.699-0.973c0.999-1.507,2.019-3.969,2.682-7.221
		c0.645-3.268,0.821-7.335,0.62-11.963c-0.083-1.164-0.118-2.352-0.244-3.582c-0.15-1.229-0.306-2.493-0.465-3.791
		c-0.073-0.647-0.146-1.303-0.221-1.966c-0.064-0.667-0.073-1.344-0.097-2.03c-0.075-1.367-0.125-2.778-0.317-4.19
		c-0.372-2.844-0.626-5.741-1.222-8.916c-0.263-1.569-0.53-3.165-0.802-4.785c-0.129-0.615-0.3-1.411-0.472-2.106
		c-0.225-0.698-0.381-1.433-0.664-2.114c-0.463-1.413-1.153-2.729-1.881-4.03c-0.778-1.271-1.686-2.474-2.713-3.595
		c-1.058-1.094-2.233-2.103-3.521-3.011c-1.306-0.886-2.721-1.66-4.216-2.336c-6.038-2.664-13.341-3.399-20.639-2.856
		c-7.328,0.536-14.756,2.327-21.787,5.05c-7.025,2.728-13.701,6.435-19.313,11.071c-5.576,4.607-10.094,10.366-11.591,16.522
		c-0.212,0.761-0.317,1.532-0.43,2.296l-0.112,1.147l-0.025,1.035l-0.01,0.258l0.018,0.335l0.039,0.676l0.039,0.674
		c0.003,0.059-0.014-0.205-0.002-0.056l0.01,0.078l0.02,0.157l0.041,0.313c0.106,0.834,0.212,1.665,0.317,2.491
		c0.543,3.286,1.362,6.451,2.401,9.458c2.122,6.004,5.122,11.34,8.431,15.891c0.806,1.153,1.67,2.234,2.537,3.268
		c0.925,0.99,1.768,2,2.535,3.046c1.507,2.114,3.069,4.044,4.594,5.821c3.068,3.539,5.986,6.476,8.489,8.806
		c2.519,2.31,4.584,4.07,6.034,5.218C64.872,108.349,65.678,108.933,65.678,108.933z"/>
</g>
<g>
	<path fill="#E5AF0D" d="M118.332,81.651c0,0,0.158-0.982,0.601-2.798c0.461-1.808,1.151-4.476,2.344-7.778
		c1.18-3.306,2.77-7.296,5.087-11.678c1.15-2.194,2.448-4.508,3.969-6.873c0.729-1.206,1.694-2.284,2.689-3.369
		c1.021-1.067,2.006-2.208,3.094-3.305c4.274-4.445,9.516-8.781,15.751-12.319c3.125-1.749,6.487-3.29,10.045-4.546
		c0.9-0.282,1.805-0.565,2.714-0.851l0.342-0.106l0.17-0.053l0.086-0.027l0.217-0.059l0.657-0.157l0.658-0.157l0.334-0.079
		l0.415-0.071l1.668-0.263l1.579-0.128c1.053-0.039,2.118-0.069,3.169,0.023c4.237,0.25,8.315,1.542,12.056,3.33
		c3.739,1.819,7.166,4.165,10.31,6.813c6.27,5.327,11.493,11.786,15.758,18.777c4.252,7.003,7.584,14.573,9.604,22.474
		c1.996,7.867,2.752,16.207,0.831,24.206c-0.499,1.986-1.151,3.935-1.989,5.804c-0.863,1.859-1.902,3.628-3.097,5.27
		c-1.228,1.618-2.601,3.097-4.086,4.408c-1.517,1.262-3.082,2.443-4.751,3.352c-0.811,0.507-1.671,0.875-2.5,1.303
		c-0.868,0.386-1.645,0.711-2.59,1.08c-1.548,0.552-3.071,1.095-4.57,1.63c-2.933,1.113-6.061,1.987-8.955,2.896
		c-1.452,0.473-2.91,0.754-4.304,1.177c-1.395,0.421-2.755,0.821-4.169,0.895c-1.391,0.133-2.745,0.263-4.062,0.39
		c-1.319,0.101-2.622,0.11-3.864,0.164c-4.994,0.128-9.379-0.304-12.883-1.174c-3.513-0.862-6.07-2.213-7.59-3.36
		c-0.764-0.577-1.271-1.103-1.589-1.471c-0.308-0.38-0.432-0.594-0.432-0.594c0,0,0.179,0.176,0.562,0.453
		c0.205,0.124,0.444,0.292,0.748,0.458c0.32,0.146,0.661,0.349,1.081,0.518c1.659,0.718,4.262,1.29,7.58,1.372
		c3.33,0.061,7.364-0.48,11.886-1.492c1.132-0.286,2.295-0.529,3.483-0.869c1.184-0.364,2.4-0.739,3.65-1.124
		c0.624-0.186,1.257-0.373,1.896-0.563c0.646-0.18,1.311-0.308,1.981-0.452c1.332-0.314,2.713-0.611,4.069-1.048
		c2.734-0.866,5.541-1.625,8.563-2.769c1.499-0.535,3.022-1.078,4.57-1.63c0.581-0.234,1.336-0.543,1.99-0.834
		c0.647-0.344,1.344-0.626,1.964-1.025c1.31-0.704,2.483-1.614,3.638-2.56c1.114-0.99,2.139-2.094,3.063-3.303
		c0.892-1.234,1.678-2.568,2.345-3.995c0.643-1.441,1.156-2.971,1.56-4.562c1.562-6.412,1.003-13.73-0.813-20.82
		c-1.815-7.12-4.883-14.118-8.799-20.561c-3.919-6.437-8.741-12.357-14.292-17.067c-5.516-4.68-11.979-8.117-18.302-8.509
		c-0.787-0.075-1.564-0.043-2.336-0.02l-1.149,0.091l-1.023,0.157l-0.256,0.035l-0.326,0.077l-0.658,0.157l-0.657,0.157
		c-0.057,0.013,0.199-0.05,0.056-0.012l-0.076,0.023l-0.15,0.048l-0.301,0.095c-0.803,0.251-1.602,0.501-2.396,0.75
		c-3.14,1.112-6.111,2.474-8.89,4.025c-5.537,3.144-10.264,7.035-14.162,11.092c-0.994,0.996-1.906,2.036-2.771,3.072
		c-0.813,1.084-1.658,2.091-2.554,3.03c-1.817,1.855-3.442,3.732-4.924,5.545c-2.945,3.642-5.324,7.031-7.178,9.904
		c-1.831,2.886-3.202,5.228-4.077,6.857C118.765,80.756,118.332,81.651,118.332,81.651z"/>
</g>
<g>
	<path fill="#E5AF0D" d="M149.794,124.673c0,0,0.985,0.134,2.813,0.533c1.818,0.417,4.502,1.042,7.832,2.156
		c3.333,1.099,7.36,2.593,11.797,4.803c2.222,1.097,4.566,2.338,6.967,3.802c1.224,0.7,2.324,1.639,3.433,2.607
		c1.092,0.994,2.256,1.953,3.38,3.014c4.546,4.165,9.008,9.302,12.695,15.45c1.822,3.082,3.445,6.406,4.786,9.933
		c0.304,0.893,0.609,1.79,0.916,2.692l0.115,0.339l0.057,0.17l0.029,0.084l0.063,0.216l0.173,0.652l0.173,0.655l0.087,0.332
		l0.08,0.413l0.304,1.661l0.165,1.575c0.064,1.052,0.12,2.116,0.054,3.169c-0.148,4.242-1.342,8.35-3.04,12.133
		c-1.728,3.782-3.99,7.264-6.562,10.47c-5.175,6.396-11.506,11.774-18.393,16.207c-6.898,4.419-14.386,7.933-22.235,10.143
		c-7.817,2.185-16.136,3.143-24.179,1.414c-1.998-0.451-3.961-1.057-5.85-1.849c-1.88-0.818-3.673-1.814-5.343-2.969
		c-1.647-1.188-3.159-2.526-4.505-3.979c-1.298-1.485-2.516-3.022-3.465-4.669c-0.527-0.798-0.915-1.649-1.363-2.469
		c-0.407-0.858-0.75-1.627-1.142-2.563c-0.589-1.534-1.169-3.044-1.74-4.529c-1.184-2.905-2.132-6.012-3.111-8.883
		c-0.507-1.44-0.824-2.892-1.28-4.274c-0.455-1.384-0.887-2.733-0.994-4.146c-0.167-1.387-0.33-2.737-0.488-4.051
		c-0.132-1.316-0.173-2.618-0.257-3.858c-0.249-4.99,0.077-9.385,0.863-12.908c0.777-3.533,2.066-6.122,3.176-7.669
		c0.559-0.777,1.072-1.298,1.432-1.623c0.373-0.317,0.584-0.446,0.583-0.446c0,0-0.171,0.184-0.439,0.572
		c-0.119,0.208-0.282,0.451-0.44,0.759c-0.138,0.323-0.333,0.67-0.491,1.093c-0.678,1.677-1.187,4.292-1.189,7.611
		c0.02,3.33,0.658,7.352,1.778,11.847c0.313,1.124,0.584,2.281,0.953,3.461c0.393,1.175,0.797,2.383,1.211,3.622
		c0.2,0.62,0.403,1.248,0.609,1.883c0.196,0.641,0.339,1.303,0.5,1.97c0.346,1.325,0.676,2.697,1.146,4.043
		c0.932,2.714,1.759,5.501,2.975,8.494c0.571,1.485,1.151,2.995,1.74,4.529c0.248,0.575,0.575,1.322,0.882,1.97
		c0.359,0.639,0.659,1.328,1.072,1.938c0.736,1.292,1.674,2.444,2.646,3.574c1.017,1.091,2.145,2.088,3.375,2.982
		c1.255,0.861,2.608,1.616,4.05,2.249c1.457,0.607,2.998,1.084,4.598,1.448c6.448,1.407,13.75,0.672,20.794-1.315
		c7.074-1.986,13.996-5.222,20.343-9.291c6.34-4.074,12.143-9.037,16.718-14.7c4.546-5.626,7.825-12.17,8.065-18.502
		c0.056-0.788,0.006-1.564-0.036-2.335l-0.119-1.146l-0.182-1.021l-0.041-0.255l-0.084-0.323l-0.173-0.655l-0.173-0.652
		c-0.015-0.057,0.056,0.197,0.014,0.055l-0.026-0.075l-0.051-0.149l-0.102-0.299c-0.271-0.797-0.54-1.589-0.808-2.377
		c-1.187-3.112-2.62-6.051-4.238-8.79c-3.276-5.461-7.279-10.092-11.43-13.892c-1.02-0.969-2.081-1.855-3.138-2.696
		c-1.104-0.786-2.131-1.607-3.091-2.479c-1.898-1.771-3.814-3.351-5.662-4.789c-3.712-2.856-7.157-5.153-10.075-6.937
		c-2.929-1.761-5.303-3.074-6.953-3.91C150.7,125.085,149.794,124.673,149.794,124.673z"/>
</g>
<g>
	<path fill="#E5AF0D" d="M108.389,152.934c0,0-0.08,0.991-0.377,2.837c-0.317,1.839-0.793,4.553-1.721,7.939
		c-0.914,3.389-2.184,7.492-4.146,12.044c-0.973,2.278-2.083,4.688-3.413,7.166c-0.631,1.26-1.508,2.41-2.414,3.57
		c-0.933,1.146-1.825,2.36-2.823,3.541c-3.909,4.769-8.792,9.507-14.727,13.527c-2.978,1.99-6.207,3.794-9.654,5.327
		c-0.875,0.353-1.754,0.707-2.638,1.063l-0.332,0.133l-0.166,0.067l-0.083,0.033l-0.211,0.075l-0.643,0.209l-0.644,0.208
		l-0.327,0.105l-0.408,0.104l-1.642,0.394l-1.564,0.253c-1.046,0.122-2.106,0.235-3.161,0.227
		c-4.244,0.086-8.411-0.878-12.282-2.365c-3.871-1.517-7.473-3.584-10.816-5.975c-6.672-4.813-12.391-10.839-17.197-17.471
		c-4.793-6.645-8.714-13.927-11.353-21.643c-2.613-7.685-4.027-15.938-2.746-24.064c0.341-2.02,0.837-4.014,1.523-5.943
		c0.714-1.922,1.61-3.768,2.67-5.499c1.096-1.71,2.348-3.293,3.724-4.718c1.412-1.378,2.879-2.679,4.471-3.718
		c0.768-0.57,1.597-1.004,2.389-1.497c0.835-0.454,1.583-0.839,2.497-1.281c1.499-0.673,2.975-1.335,4.426-1.987
		c2.835-1.342,5.885-2.46,8.698-3.596c1.411-0.586,2.841-0.982,4.197-1.514c1.357-0.531,2.681-1.036,4.085-1.222
		c1.375-0.243,2.715-0.48,4.018-0.71c1.308-0.204,2.605-0.317,3.838-0.469c4.969-0.523,9.375-0.44,12.936,0.151
		c3.571,0.581,6.228,1.726,7.833,2.748c0.807,0.516,1.354,0.999,1.7,1.341c0.337,0.354,0.478,0.558,0.478,0.558
		c0,0-0.192-0.161-0.596-0.407c-0.215-0.107-0.466-0.257-0.782-0.398c-0.33-0.12-0.687-0.295-1.118-0.43
		c-1.711-0.585-4.351-0.949-7.665-0.768c-3.324,0.203-7.304,1.062-11.73,2.428c-1.105,0.375-2.246,0.709-3.404,1.142
		c-1.151,0.457-2.334,0.927-3.55,1.409c-0.607,0.234-1.223,0.472-1.846,0.711c-0.629,0.231-1.282,0.411-1.939,0.608
		c-1.303,0.418-2.656,0.824-3.973,1.368c-2.658,1.08-5.396,2.059-8.317,3.438c-1.452,0.651-2.928,1.314-4.426,1.986
		c-0.562,0.28-1.29,0.647-1.918,0.99c-0.618,0.394-1.29,0.731-1.877,1.177c-1.25,0.806-2.348,1.806-3.423,2.84
		c-1.033,1.075-1.966,2.257-2.792,3.535c-0.791,1.301-1.469,2.693-2.022,4.168c-0.526,1.487-0.917,3.053-1.193,4.671
		c-1.049,6.516,0.088,13.767,2.46,20.689c2.374,6.954,5.986,13.688,10.399,19.8c4.417,6.106,9.693,11.626,15.6,15.882
		c5.869,4.229,12.583,7.143,18.919,7.033c0.79,0.013,1.563-0.081,2.33-0.165l1.139-0.182l1.008-0.237l0.252-0.056l0.319-0.102
		l0.644-0.209l0.642-0.208c0.056-0.018-0.194,0.066-0.054,0.017l0.073-0.03l0.146-0.06l0.292-0.118
		c0.781-0.313,1.557-0.626,2.33-0.937c3.042-1.357,5.896-2.95,8.542-4.717c5.271-3.573,9.675-7.825,13.24-12.179
		c0.912-1.071,1.738-2.181,2.519-3.281c0.724-1.146,1.488-2.217,2.306-3.224c1.664-1.993,3.135-3.992,4.469-5.917
		c2.647-3.864,4.75-7.431,6.371-10.441c1.597-3.021,2.777-5.465,3.521-7.159C108.028,153.861,108.389,152.934,108.389,152.934z"/>
</g>
<circle fill="none" stroke="#E5AF0D" stroke-width="3" cx="109.848" cy="119.57" r="18.624"/>
</svg>
