<?xml version="1.0" encoding="utf-8"?>
<!-- Generator: Adobe Illustrator 16.0.0, SVG Export Plug-In . SVG Version: 6.00 Build 0)  -->
<!DOCTYPE svg PUBLIC "-//W3C//DTD SVG 1.1//EN" "http://www.w3.org/Graphics/SVG/1.1/DTD/svg11.dtd">
<svg version="1.1" id="Layer_1" xmlns="http://www.w3.org/2000/svg" xmlns:xlink="http://www.w3.org/1999/xlink" x="0px" y="0px"
	 width="227px" height="237.5px" viewBox="0 0 227 237.5" enable-background="new 0 0 227 237.5" xml:space="preserve">
<path fill="none" stroke="#E5AF0D" stroke-width="7" d="M30.044,185.31h5.36h155.484h6.529c13.282,0,24.046-10.765,24.046-24.044
	s-10.764-24.045-24.046-24.045h-3.323V5.687c0,0,20.807-2.405,27.369,21.372V146.21v15.056"/>
<path fill="none" stroke="#E5AF0D" stroke-width="7" d="M30.044,185.31C16.763,185.31,6,196.076,6,209.354
	s10.763,24.045,24.044,24.045V185.31z"/>
<path fill="none" stroke="#E5AF0D" stroke-width="7" d="M194.094,40.951H27.389C9.891,40.951,6,58.583,6,58.583v145.866v4.905"/>
<g>
	<path fill="none" stroke="#E5AF0D" stroke-width="7" d="M136.923,158.489c0,0.005-0.004,0.01-0.01,0.01H37.017
		c-0.005,0-0.014,0-0.02,0h-2.118c-0.005,0-0.01-0.005-0.01-0.01V67.143c0-0.005,0.004-0.01,0.01-0.01h4.255
		c0.006,0,0.015,0,0.021,0h93.484c0.005,0,0.014,0,0.02,0h4.255c0.006,0,0.01,0.004,0.01,0.01v86.805c0,0.005,0,0.015,0,0.02
		V158.489z"/>
</g>
<g>
	<path fill="none" stroke="#E5AF0D" stroke-width="7" d="M85.896,112.816V70.882c0-0.005,0-0.014,0-0.02v-3.729"/>
</g>
<g>
	<line fill="none" stroke="#E5AF0D" stroke-width="7" x1="36.271" y1="112.816" x2="135.52" y2="112.816"/>
</g>
<g>
	<line fill="none" stroke="#E5AF0D" stroke-width="7" x1="106.467" y1="113.217" x2="106.467" y2="157.098"/>
</g>
<g>
	<line fill="none" stroke="#E5AF0D" stroke-width="7" x1="65.058" y1="113.217" x2="65.058" y2="157.098"/>
</g>
<g>
	<path fill="none" stroke="#E5AF0D" stroke-width="7" d="M151.082,158.499h11.479c0.005,0,0.01-0.005,0.01-0.01v-3.187
		c0-0.005,0-0.015,0-0.02V70.882c0-0.005,0-0.014,0-0.02v-3.72c0-0.005-0.005-0.01-0.01-0.01h-9.608"/>
</g>
</svg>
