<?xml version="1.0" encoding="utf-8"?>
<!-- Generator: Adobe Illustrator 16.0.0, SVG Export Plug-In . SVG Version: 6.00 Build 0)  -->
<!DOCTYPE svg PUBLIC "-//W3C//DTD SVG 1.1//EN" "http://www.w3.org/Graphics/SVG/1.1/DTD/svg11.dtd">
<svg version="1.1" id="Layer_1" xmlns="http://www.w3.org/2000/svg" xmlns:xlink="http://www.w3.org/1999/xlink" x="0px" y="0px"
	 width="227px" height="237.5px" viewBox="0 0 227 237.5" enable-background="new 0 0 227 237.5" xml:space="preserve">
<path fill="none" stroke="#E5AF0D" stroke-width="7" d="M217.355,82.513c1.56,4.964-0.899,10.154-5.487,11.594l-143.997,45.16
	c-4.588,1.439-9.569-1.418-11.126-6.382L39.362,77.46c-1.556-4.964,0.901-10.154,5.489-11.593l143.998-45.161
	c4.588-1.439,9.569,1.418,11.127,6.382L217.355,82.513z"/>
<g>
	<path fill="none" stroke="#E5AF0D" stroke-width="7" d="M39.263,82.169l-24.93-0.28c-5.5-0.062-10,1.389-10,3.224
		s1.305,7.643,2.9,12.906l9.899,32.666c1.595,5.264,4.313,9.57,6.04,9.57c1.727,0,6.963-2.375,11.635-5.277l17.409-10.814"/>
</g>
<line fill="none" stroke="#E5AF0D" stroke-width="5" x1="131.495" y1="137.807" x2="131.495" y2="169.834"/>
<line fill="none" stroke="#E5AF0D" stroke-width="5" x1="146.802" y1="134.847" x2="146.802" y2="169.834"/>
<line fill="none" stroke="#E5AF0D" stroke-width="5" x1="151.511" y1="174.008" x2="204.888" y2="174.008"/>
<line fill="none" stroke="#E5AF0D" stroke-width="5" x1="153.368" y1="190.1" x2="204.888" y2="190.1"/>
<path fill="none" stroke="#E5AF0D" stroke-width="5" d="M223.333,198.342c0,5.201-4.218,9.419-9.419,9.419l0,0
	c-5.202,0-9.419-4.218-9.419-9.419v-31.398c0-5.202,4.217-9.42,9.419-9.42l0,0c5.201,0,9.419,4.218,9.419,9.42V198.342z"/>
<circle fill="none" stroke="#E5AF0D" stroke-width="5" cx="139.736" cy="181.857" r="14.914"/>
<path fill="none" stroke="#E5AF0D" stroke-width="5" d="M158.977,107.724c3.641,12.204-3.301,25.046-15.506,28.686
	c-12.204,3.64-25.046-3.301-28.686-15.505"/>
</svg>
