<?xml version="1.0" encoding="utf-8"?>
<!-- Generator: Adobe Illustrator 16.0.0, SVG Export Plug-In . SVG Version: 6.00 Build 0)  -->
<!DOCTYPE svg PUBLIC "-//W3C//DTD SVG 1.1//EN" "http://www.w3.org/Graphics/SVG/1.1/DTD/svg11.dtd">
<svg version="1.1" id="Layer_1" xmlns="http://www.w3.org/2000/svg" xmlns:xlink="http://www.w3.org/1999/xlink" x="0px" y="0px"
	 width="227px" height="237.5px" viewBox="0 0 227 237.5" enable-background="new 0 0 227 237.5" xml:space="preserve">
<g>
	<path fill="#E5AF0D" d="M70.599,137.174c0,0,0.002-0.207,0.032-0.57c0.037-0.356,0.059-0.91,0.158-1.543
		c0.085-0.647,0.188-1.435,0.354-2.291c0.087-0.423,0.18-0.873,0.278-1.348c0.037-0.249,0.202-0.378,0.401-0.479
		c0.195-0.106,0.328-0.28,0.49-0.432c2.513-2.513,5.863-5.863,9.213-9.214c3.351-3.35,6.701-6.701,9.214-9.213
		c0.151-0.163,0.326-0.295,0.439-0.483c0.092-0.208,0.245-0.35,0.505-0.375c0.479-0.093,0.934-0.182,1.361-0.265
		c0.84-0.18,1.628-0.283,2.269-0.375c0.63-0.102,1.176-0.133,1.527-0.174c0.366-0.027,0.561-0.041,0.561-0.041
		s-0.014,0.195-0.041,0.561c-0.042,0.351-0.072,0.896-0.175,1.527c-0.091,0.641-0.194,1.428-0.374,2.269
		c-0.083,0.427-0.172,0.882-0.265,1.361c-0.026,0.261-0.167,0.413-0.375,0.505c-0.188,0.113-0.32,0.288-0.483,0.439
		c-2.513,2.513-5.863,5.863-9.213,9.214c-3.351,3.35-6.701,6.701-9.214,9.213c-0.152,0.162-0.327,0.295-0.432,0.49
		c-0.101,0.2-0.23,0.364-0.479,0.401c-0.475,0.098-0.925,0.191-1.348,0.278c-0.855,0.166-1.643,0.268-2.291,0.354
		c-0.634,0.099-1.188,0.121-1.543,0.158C70.806,137.172,70.599,137.174,70.599,137.174z"/>
</g>
<g>
	<path fill="#E5AF0D" d="M155.652,138.176c0,0-0.207-0.002-0.57-0.032c-0.355-0.037-0.909-0.059-1.543-0.158
		c-0.647-0.085-1.436-0.188-2.29-0.354c-0.423-0.087-0.873-0.18-1.348-0.278c-0.249-0.037-0.379-0.202-0.479-0.401
		c-0.105-0.195-0.28-0.328-0.433-0.49c-2.513-2.513-5.863-5.863-9.213-9.213c-3.35-3.351-6.701-6.701-9.213-9.214
		c-0.163-0.151-0.295-0.326-0.483-0.439c-0.208-0.092-0.35-0.245-0.375-0.505c-0.093-0.479-0.182-0.934-0.265-1.361
		c-0.18-0.84-0.283-1.628-0.374-2.269c-0.103-0.63-0.133-1.176-0.175-1.527c-0.027-0.366-0.041-0.561-0.041-0.561
		s0.195,0.014,0.561,0.041c0.351,0.042,0.896,0.072,1.527,0.175c0.641,0.091,1.429,0.194,2.269,0.374
		c0.427,0.083,0.882,0.172,1.361,0.265c0.261,0.025,0.413,0.167,0.505,0.375c0.113,0.188,0.288,0.32,0.439,0.483
		c2.513,2.513,5.863,5.863,9.213,9.213c3.351,3.351,6.701,6.701,9.214,9.214c0.162,0.152,0.295,0.327,0.489,0.432
		c0.2,0.101,0.364,0.23,0.401,0.479c0.099,0.475,0.191,0.925,0.279,1.348c0.165,0.855,0.268,1.643,0.353,2.291
		c0.1,0.634,0.122,1.188,0.159,1.543C155.649,137.969,155.652,138.176,155.652,138.176z"/>
</g>
<g>
	<path fill="#E5AF0D" d="M113.5,160.072c0,0,0.145,0.148,0.381,0.426c0.226,0.277,0.602,0.685,0.979,1.203
		c0.397,0.518,0.882,1.147,1.37,1.869c0.237,0.361,0.49,0.745,0.756,1.15c0.149,0.201,0.125,0.41,0.055,0.622
		c-0.063,0.212-0.033,0.43-0.041,0.651c0,3.555,0,8.292,0,13.03s0,9.476,0,13.029c0.008,0.223-0.021,0.439,0.031,0.652
		c0.082,0.213,0.074,0.42-0.092,0.623c-0.273,0.404-0.532,0.788-0.775,1.149c-0.467,0.722-0.951,1.352-1.34,1.869
		c-0.373,0.519-0.737,0.926-0.956,1.203c-0.24,0.277-0.368,0.426-0.368,0.426s-0.128-0.148-0.368-0.426
		c-0.219-0.277-0.583-0.685-0.956-1.203c-0.389-0.518-0.873-1.147-1.34-1.869c-0.244-0.361-0.502-0.745-0.775-1.149
		c-0.167-0.203-0.174-0.41-0.092-0.623c0.053-0.213,0.023-0.43,0.031-0.652c0-3.554,0-8.291,0-13.029s0-9.476,0-13.03
		c-0.007-0.222,0.022-0.439-0.041-0.651c-0.07-0.212-0.095-0.421,0.055-0.622c0.267-0.405,0.519-0.789,0.756-1.15
		c0.488-0.722,0.972-1.352,1.37-1.869c0.377-0.519,0.753-0.926,0.979-1.203C113.355,160.221,113.5,160.072,113.5,160.072z"/>
</g>
<g>
	<path fill="none" stroke="#E5AF0D" stroke-width="7" d="M48.105,193.733c13.381,22.109,36.887,35.649,64.615,35.649
		c27.609,0,50.245-14.969,63.662-36.917l0,0c0.551-0.879,1.002-6.099,1.002-11.599v-67.401c0-5.5-0.676-10.563-1.502-11.25l0,0
		c-13.417-21.949-36.103-37-63.711-37c-27.729,0-51.164,13.416-64.545,35.525l0,0c-0.464,1.499-0.844,7.225-0.844,12.725v67.401
		C46.782,186.367,47.378,192.157,48.105,193.733L48.105,193.733z"/>
</g>
<path fill="none" stroke="#E5AF0D" stroke-width="7" d="M133.584,40.5c0,6.628-5.373,12-12,12h-21c-6.628,0-12-5.372-12-12v-21
	c0-6.628,5.372-12,12-12h21c6.627,0,12,5.372,12,12V40.5z"/>
<g>
	<path fill="none" stroke="#E5AF0D" stroke-width="4" d="M133.292,32.75c0,0-1.295-2.925-2.879-6.5
		c-1.583-3.575-7.379-6.5-12.879-6.5h-13.806c-5.5,0-11.092,2.925-12.426,6.5s-2.426,6.5-2.426,6.5"/>
</g>
<g>
	<path fill="#E5AF0D" d="M104.5,14.25c0,0,0.206-0.237,0.566-0.583c0.18-0.17,0.398-0.379,0.649-0.578
		c0.125-0.104,0.259-0.215,0.399-0.333c0.07-0.064,0.143-0.054,0.216-0.024c0.074,0.027,0.149,0.015,0.227,0.018
		c1.234,0,2.88,0,4.526,0s3.292,0,4.526,0c0.077-0.003,0.153,0.009,0.227-0.013c0.074-0.035,0.146-0.032,0.216,0.039
		c0.141,0.117,0.274,0.228,0.399,0.333c0.251,0.2,0.469,0.408,0.649,0.574c0.36,0.34,0.566,0.567,0.566,0.567
		s-0.206,0.227-0.566,0.567c-0.18,0.167-0.398,0.374-0.649,0.574c-0.125,0.104-0.259,0.215-0.399,0.333
		c-0.07,0.071-0.143,0.074-0.216,0.039c-0.074-0.022-0.149-0.01-0.227-0.013c-1.234,0-2.88,0-4.526,0s-3.292,0-4.526,0
		c-0.077,0.003-0.153-0.01-0.227,0.018c-0.074,0.03-0.146,0.04-0.216-0.024c-0.141-0.117-0.274-0.228-0.399-0.333
		c-0.251-0.199-0.469-0.408-0.649-0.578C104.706,14.487,104.5,14.25,104.5,14.25z"/>
</g>
</svg>
