<?xml version="1.0" encoding="utf-8"?>
<!-- Generator: Adobe Illustrator 16.0.0, SVG Export Plug-In . SVG Version: 6.00 Build 0)  -->
<!DOCTYPE svg PUBLIC "-//W3C//DTD SVG 1.1//EN" "http://www.w3.org/Graphics/SVG/1.1/DTD/svg11.dtd">
<svg version="1.1" id="Layer_1" xmlns="http://www.w3.org/2000/svg" xmlns:xlink="http://www.w3.org/1999/xlink" x="0px" y="0px"
	 width="227px" height="237.5px" viewBox="0 0 227 237.5" enable-background="new 0 0 227 237.5" xml:space="preserve">
<path fill="none" stroke="#E5AF0D" stroke-width="7" d="M124.485,117.252c0,6.066-4.919,10.985-10.985,10.985
	c-6.067,0-10.985-4.919-10.985-10.985s4.918-10.985,10.985-10.985v-3.011V35.227"/>
<path fill="none" stroke="#E5AF0D" stroke-width="7" d="M28.301,212.784c0,6.067-4.918,10.986-10.985,10.986
	c-6.067,0-10.985-4.919-10.985-10.986c0-6.066,4.918-10.985,10.985-10.985v-2.522v-25.714c0,0,1.628-8.788,10.091-8.788h86.582"/>
<path fill="none" stroke="#E5AF0D" stroke-width="7" d="M76.475,212.307c0,6.33-4.918,11.464-10.986,11.464
	c-6.067,0-10.985-5.134-10.985-11.464c0-6.332,4.918-11.465,10.985-11.465v-1.271v-71.333"/>
<path fill="none" stroke="#E5AF0D" stroke-width="7" d="M124.729,212.784c0,6.067-4.919,10.986-10.985,10.986
	c-6.067,0-10.985-4.919-10.985-10.986c0-6.066,4.918-10.985,10.985-10.985v-2.522v-69.004"/>
<path fill="none" stroke="#E5AF0D" stroke-width="7" d="M172.496,212.784c0,6.067-4.918,10.986-10.985,10.986
	c-6.066,0-10.985-4.919-10.985-10.986c0-6.066,4.919-10.985,10.985-10.985v-2.522v-69.004"/>
<path fill="none" stroke="#E5AF0D" stroke-width="7" d="M172.496,117.252c0,6.066-4.918,10.985-10.985,10.985
	c-6.066,0-10.985-4.919-10.985-10.985s4.919-10.985,10.985-10.985v-3.011"/>
<path fill="none" stroke="#E5AF0D" stroke-width="7" d="M220.669,212.542c0,6.066-4.918,10.985-10.985,10.985
	c-6.066,0-10.985-4.919-10.985-10.985c0-6.067,4.919-10.985,10.985-10.985v-3.012"/>
<path fill="none" stroke="#E5AF0D" stroke-width="7" d="M112.361,164.774h88.046c0,0,9.276,0.65,9.276,10.091v23.68"/>
<path fill="none" stroke="#E5AF0D" stroke-width="7" d="M161.511,105.209V78.681c0,0,0.163-8.951-9.765-9.602H76.231
	c-9.195-1.057-10.742,8.789-10.742,8.789v25.388v3.011c-6.067,0-10.985,4.919-10.985,10.985s4.918,10.985,10.985,10.985
	c6.068,0,10.986-4.919,10.986-10.985"/>
<path fill="none" stroke="#E5AF0D" stroke-width="7" d="M124.485,21.882c0,6.067-4.919,10.985-10.985,10.985
	c-6.067,0-10.985-4.918-10.985-10.985c0-6.066,4.918-10.985,10.985-10.985"/>
</svg>
