<?xml version="1.0" encoding="utf-8"?>
<!-- Generator: Adobe Illustrator 16.0.0, SVG Export Plug-In . SVG Version: 6.00 Build 0)  -->
<!DOCTYPE svg PUBLIC "-//W3C//DTD SVG 1.1//EN" "http://www.w3.org/Graphics/SVG/1.1/DTD/svg11.dtd">
<svg version="1.1" id="Layer_1" xmlns="http://www.w3.org/2000/svg" xmlns:xlink="http://www.w3.org/1999/xlink" x="0px" y="0px"
	 width="227px" height="237.5px" viewBox="0 0 227 237.5" enable-background="new 0 0 227 237.5" xml:space="preserve">
<circle fill="none" stroke="#E5AF0D" stroke-width="7" cx="115.75" cy="84.5" r="59.25"/>
<circle fill="none" stroke="#E5AF0D" stroke-width="7" cx="115.75" cy="84.5" r="77.75"/>
<path fill="none" stroke="#E5AF0D" stroke-width="7" d="M92.973,173.729c-2.315,3.763-7.243,4.937-11.006,2.621l-28.105-17.295
	c-3.763-2.315-4.936-7.243-2.621-11.006l0.786-1.277c2.315-3.763,7.243-4.937,11.006-2.621l28.105,17.295
	c3.763,2.315,4.936,7.243,2.621,11.006L92.973,173.729z"/>
<path fill="none" stroke="#E5AF0D" stroke-width="7" d="M31.845,227.385c-3.763-2.315-4.12-8.57-0.796-13.971l24.822-40.338
	c3.323-5.4,9.068-7.9,12.831-5.585l1.277,0.786c3.763,2.315,4.12,8.569,0.796,13.971l-24.822,40.338
	c-3.323,5.399-9.067,7.9-12.83,5.586L31.845,227.385z"/>
<g>
	<path fill="#E5AF0D" d="M78.583,61.41c0,0,0.057-0.801,0.273-2.123c0.126-0.662,0.196-1.463,0.468-2.361
		c0.149-0.454,0.309-0.938,0.477-1.447c0.079-0.264,0.26-0.46,0.469-0.639c0.205-0.181,0.364-0.409,0.546-0.624
		c0.72-0.865,1.576-1.671,2.442-2.593c0.425-0.467,0.906-0.898,1.41-1.329c0.498-0.436,1.006-0.881,1.523-1.334
		c0.503-0.47,1.074-0.874,1.644-1.294c0.569-0.419,1.146-0.844,1.727-1.272c1.188-0.818,2.466-1.544,3.708-2.321
		c1.315-0.647,2.605-1.353,3.927-1.932c0.67-0.268,1.335-0.534,1.993-0.796c0.329-0.131,0.656-0.261,0.98-0.39l0.243-0.096
		l0.061-0.024l0.158-0.05l0.118-0.036l0.469-0.143c0.622-0.189,1.234-0.375,1.833-0.557c0.299-0.091,0.596-0.181,0.888-0.27
		c0.305-0.083,0.639-0.146,0.951-0.217c1.261-0.256,2.469-0.579,3.56-0.719c0.272-0.041,0.542-0.054,0.797-0.125
		c0.253-0.091,0.51-0.119,0.773-0.033c0.515,0.131,1.003,0.255,1.462,0.373c0.907,0.236,1.69,0.59,2.32,0.829
		c1.262,0.506,1.946,0.864,1.946,0.864s-0.701,0.417-1.865,1.025c-0.581,0.315-1.277,0.649-2.05,1.071
		c-0.379,0.224-0.784,0.462-1.209,0.714c-0.207,0.146-0.433,0.181-0.673,0.152c-0.238-0.008-0.474,0.043-0.718,0.068
		c-0.974,0.123-1.948,0.399-3.025,0.604c-0.27,0.06-0.532,0.102-0.817,0.178c-0.292,0.089-0.589,0.179-0.888,0.27
		c-0.599,0.182-1.211,0.368-1.833,0.557l-0.469,0.143l-0.118,0.036l-0.029,0.009l-0.015,0.004c0.04-0.013-0.108,0.035,0.084-0.028
		l-0.054,0.022l-0.216,0.087c-0.289,0.116-0.58,0.232-0.873,0.35c-0.586,0.233-1.179,0.47-1.777,0.708
		c-1.178,0.517-2.325,1.151-3.501,1.721c-1.104,0.7-2.247,1.342-3.307,2.072c-0.518,0.382-1.032,0.762-1.54,1.137
		c-0.508,0.374-1.021,0.73-1.467,1.153c-0.461,0.404-0.915,0.802-1.359,1.191c-0.45,0.382-0.881,0.766-1.258,1.185
		c-0.763,0.818-1.556,1.559-2.165,2.295c-0.146,0.188-0.309,0.355-0.418,0.561c-0.105,0.208-0.232,0.389-0.452,0.492
		c-0.431,0.226-0.84,0.44-1.224,0.642c-0.788,0.419-1.472,0.893-2.054,1.215C79.308,61.065,78.583,61.41,78.583,61.41z"/>
</g>
</svg>
